<svg width="900" height="680" viewBox="0 0 900 680" fill="none" xmlns="http://www.w3.org/2000/svg">
  <rect width="900" height="680" rx="48" fill="#FFF7E8"/>
  <circle cx="655" cy="182" r="84" fill="#F5C94C"/>
  <circle cx="655" cy="182" r="38" fill="#1E1A17" fill-opacity="0.08"/>
  <path d="M138 490C231 363 356 285 475 271C593 257 677 186 722 94" stroke="#1E1A17" stroke-width="18" stroke-linecap="round"/>
  <path d="M111 565C214 439 331 385 453 379C577 373 678 317 789 187" stroke="#A37D46" stroke-width="12" stroke-linecap="round"/>
  <rect x="110" y="115" width="246" height="166" rx="32" fill="#FFFCF6" stroke="#E8DED0" stroke-width="4"/>
  <text x="146" y="168" fill="#1E1A17" font-family="Arial, sans-serif" font-size="28" font-weight="700">Luxury Signals</text>
  <text x="146" y="209" fill="#5E4B3E" font-family="Arial, sans-serif" font-size="22">Revenue-ranked salons</text>
  <text x="146" y="244" fill="#5E4B3E" font-family="Arial, sans-serif" font-size="22">Scalp wellness fit</text>
  <circle cx="314" cy="152" r="12" fill="#F5C94C"/>
  <rect x="458" y="420" width="276" height="160" rx="32" fill="#FFFCF6" stroke="#E8DED0" stroke-width="4"/>
  <text x="492" y="472" fill="#1E1A17" font-family="Arial, sans-serif" font-size="28" font-weight="700">AI Watchtower</text>
  <text x="492" y="512" fill="#5E4B3E" font-family="Arial, sans-serif" font-size="22">Brand-safe fallbacks</text>
  <text x="492" y="546" fill="#5E4B3E" font-family="Arial, sans-serif" font-size="22">Yellow dot = demo AI surface</text>
  <circle cx="680" cy="456" r="12" fill="#F5C94C"/>
</svg>
